<svg xmlns="http://www.w3.org/2000/svg" width="31.99" height="28.134" viewBox="0 0 31.99 28.134">
  <g id="Group_24775" data-name="Group 24775" transform="translate(-5969.077 -109.2)">
    <path id="split" d="M34.823,18.067,29.211,23.68a.832.832,0,0,1-1.421-.588V19.826H24.273V32.134H20.756V4h3.517V16.309H27.79V13.043a.832.832,0,0,1,1.421-.588Z" transform="translate(5948.32 105.2)" fill="#170fe6"/>
    <path id="split-2" data-name="split" d="M34.823,18.067,29.211,23.68a.832.832,0,0,1-1.421-.588V19.826H24.273V32.134H20.756V4h3.517V16.309H27.79V13.043a.832.832,0,0,1,1.421-.588Z" transform="translate(5948.32 105.2)" fill="#170fe6"/>
    <path id="split-3" data-name="split" d="M20.756,18.067l5.613,5.613a.832.832,0,0,0,1.421-.588V19.826h3.517V32.134h3.517V4H31.306V16.309H27.79V13.043a.832.832,0,0,0-1.421-.588Z" transform="translate(5966.244 105.2)" fill="#170fe6"/>
  </g>
</svg>
