<svg xmlns="http://www.w3.org/2000/svg" width="24.912" height="25.427" viewBox="0 0 24.912 25.427">
  <path id="Path_55217" data-name="Path 55217" d="M92.594,92.907a3.447,3.447,0,1,1,3.447-3.447,3.447,3.447,0,0,1-3.447,3.447m0-8.5a5.051,5.051,0,1,1-5.051,5.051A5.051,5.051,0,0,1,92.594,84.409ZM84.4,90.962a.778.778,0,0,1-.251.572L81.921,93.58,80.751,92.3l1.682-1.538a.716.716,0,0,0,.233-.528V88.9a.717.717,0,0,0-.255-.548l-1.945-1.635a1.305,1.305,0,0,1-.261-1.7l2.658-4.172a1.306,1.306,0,0,1,1.7-.46l1.862.957a.717.717,0,0,0,.586.031l1.2-.466a.716.716,0,0,0,.455-.608l.176-2.1a1.305,1.305,0,0,1,1.3-1.2h4.889a1.305,1.305,0,0,1,1.3,1.185l.193,2.084a.716.716,0,0,0,.289.511l.988.727a.716.716,0,0,0,.672.1l2.349-.864.6,1.628-3.2,1.176a.777.777,0,0,1-.733-.107l-2.246-1.678a.948.948,0,0,1-.378-.671l-.225-2.353H90.554l-.245,2.673a1.033,1.033,0,0,1-.681.879l-2.612.935a1.033,1.033,0,0,1-.818-.053L84.116,82.1l-2.2,3.449,2.152,1.857a.949.949,0,0,1,.329.718Zm19.989,1.3a1.305,1.305,0,0,1,.33,1.728l-2.558,4.167a1.305,1.305,0,0,1-1.7.482l-1.884-.95a.716.716,0,0,0-.757.07l-1.026.781a.716.716,0,0,0-.28.516l-.159,2.088a1.305,1.305,0,0,1-1.28,1.206l-4.946.081a1.306,1.306,0,0,1-1.313-1.112L88.439,98.8a.716.716,0,0,0-.333-.5l-1.135-.7a.717.717,0,0,0-.572-.078l-2.191.628-.478-1.667,2.908-.827a.777.777,0,0,1,.619.085l2.415,1.483a.949.949,0,0,1,.44.656l.456,2.805,4.088-.067.184-2.331a1.033,1.033,0,0,1,.383-.725l2.164-1.737a1.033,1.033,0,0,1,1.105-.12L100.9,96.9l2.14-3.484-1.887-1.423a.949.949,0,0,1-.374-.673l-.254-2.792a.777.777,0,0,1,.293-.681l2.675-2.108,1.074,1.362L102.6,88.646a.716.716,0,0,0-.27.622l.1,1.222a.717.717,0,0,0,.284.513l1.675,1.255Z" transform="translate(-80 -77)" fill="#fff" fill-rule="evenodd"/>
</svg>
